<?xml version="1.0" encoding="UTF-8"?>
<!DOCTYPE svg PUBLIC "-//W3C//DTD SVG 1.1//EN" "http://www.w3.org/Graphics/SVG/1.1/DTD/svg11.dtd">
<svg xmlns="http://www.w3.org/2000/svg" version="1.1" width="2788px" height="2596px" style="shape-rendering:geometricPrecision; text-rendering:geometricPrecision; image-rendering:optimizeQuality; fill-rule:evenodd; clip-rule:evenodd" xmlns:xlink="http://www.w3.org/1999/xlink">
<g><path style="opacity:0.031" fill="#fdfdfd" d="M -0.5,-0.5 C 928.833,-0.5 1858.17,-0.5 2787.5,-0.5C 2787.5,864.833 2787.5,1730.17 2787.5,2595.5C 1858.17,2595.5 928.833,2595.5 -0.5,2595.5C -0.5,1730.17 -0.5,864.833 -0.5,-0.5 Z"/></g>
<g><path style="opacity:1" fill="#007360" d="M 654.5,678.5 C 1263.83,678.5 1873.17,678.5 2482.5,678.5C 2475.73,828.382 2401.73,927.882 2260.5,977C 2248.55,979.922 2236.55,982.589 2224.5,985C 1714.18,989.972 1203.84,992.972 693.5,994C 643.562,1023.96 632.396,1064.79 660,1116.5C 669.172,1128.34 680.672,1137.17 694.5,1143C 808.497,1144.56 922.497,1145.89 1036.5,1147C 1206.44,1176.62 1317.61,1273.45 1370,1437.5C 1406.47,1646.07 1330.97,1798.23 1143.5,1894C 1093.83,1914.47 1042.17,1924.13 988.5,1923C 860.158,1925.26 731.825,1924.93 603.5,1922C 433.627,1887.96 343.294,1784.46 332.5,1611.5C 489.167,1611.67 645.834,1611.5 802.5,1611C 871.171,1610.73 939.838,1610.06 1008.5,1609C 1066.41,1585.62 1081.58,1545.78 1054,1489.5C 1042.87,1475.38 1028.71,1465.55 1011.5,1460C 894.821,1458.86 778.154,1457.19 661.5,1455C 497.066,1421.23 390.566,1324.06 342,1163.5C 305.232,957.552 378.732,806.052 562.5,709C 592.704,697.098 623.371,686.932 654.5,678.5 Z"/></g>
<g><path style="opacity:0.98" fill="#9a9a9a" d="M 1740.5,1116.5 C 1740.5,1382.83 1740.5,1649.17 1740.5,1915.5C 1637.83,1915.5 1535.17,1915.5 1432.5,1915.5C 1432.5,1702.17 1432.5,1488.83 1432.5,1275.5C 1435.15,1206.68 1467.48,1157.52 1529.5,1128C 1538.39,1124.39 1547.39,1121.06 1556.5,1118C 1617.98,1115.61 1679.32,1115.11 1740.5,1116.5 Z"/></g>
<g><path style="opacity:0.98" fill="#9a9a9a" d="M 1815.5,1116.5 C 1944.83,1116.5 2074.17,1116.5 2203.5,1116.5C 2200.14,1231.1 2151.14,1319.93 2056.5,1383C 1981.45,1423.93 1901.45,1439.09 1816.5,1428.5C 1815.5,1324.5 1815.17,1220.5 1815.5,1116.5 Z"/></g>
<g><path style="opacity:0.91" fill="#bcbcbc" d="M 1740.5,1116.5 C 1744.39,1344.99 1746.06,1573.65 1745.5,1802.5C 1744.5,1841.33 1744.17,1880.33 1744.5,1919.5C 1639.17,1919.5 1533.83,1919.5 1428.5,1919.5C 1428.83,1889 1428.5,1858.66 1427.5,1828.5C 1427.3,1706.83 1427.8,1585.16 1429,1463.5C 1429.46,1400.66 1430.62,1337.99 1432.5,1275.5C 1432.5,1488.83 1432.5,1702.17 1432.5,1915.5C 1535.17,1915.5 1637.83,1915.5 1740.5,1915.5C 1740.5,1649.17 1740.5,1382.83 1740.5,1116.5 Z"/></g>
<g><path style="opacity:0.827" fill="#cecece" d="M 1745.5,1802.5 C 1745.5,1841.83 1745.5,1881.17 1745.5,1920.5C 1639.5,1920.5 1533.5,1920.5 1427.5,1920.5C 1427.5,1889.83 1427.5,1859.17 1427.5,1828.5C 1428.5,1858.66 1428.83,1889 1428.5,1919.5C 1533.83,1919.5 1639.17,1919.5 1744.5,1919.5C 1744.17,1880.33 1744.5,1841.33 1745.5,1802.5 Z"/></g>
</svg>
