<?xml version="1.0" standalone="no"?>
<!DOCTYPE svg PUBLIC "-//W3C//DTD SVG 20010904//EN"
 "http://www.w3.org/TR/2001/REC-SVG-20010904/DTD/svg10.dtd">
<svg version="1.0" xmlns="http://www.w3.org/2000/svg"
 width="1081.000000pt" height="1081.000000pt" viewBox="0 0 1081.000000 1081.000000"
 preserveAspectRatio="xMidYMid meet">

<g transform="translate(0.000000,1081.000000) scale(0.100000,-0.100000)"
fill="#000000" stroke="none">
<path d="M2330 8178 c-394 -41 -782 -240 -1043 -536 -298 -338 -441 -768 -407
-1223 18 -236 63 -399 170 -614 158 -318 407 -567 725 -725 215 -107 377 -152
616 -170 74 -5 404 -10 734 -10 l600 0 60 -29 c153 -72 225 -241 170 -401 -13
-41 -34 -70 -79 -116 -109 -109 50 -99 -1582 -102 l-1422 -2 5 -68 c23 -333
153 -622 383 -852 201 -202 465 -332 746 -370 64 -8 335 -10 974 -8 876 3 886
4 993 26 316 67 609 224 832 447 221 222 379 515 447 829 18 86 22 134 22 316
1 245 -15 356 -80 541 -191 550 -635 939 -1221 1070 -94 22 -124 23 -818 28
-779 7 -746 4 -833 63 -125 86 -176 271 -113 413 28 62 94 130 160 162 l56 28
3185 5 3185 6 99 22 c250 58 471 178 644 351 232 232 358 510 387 854 l7 77
-3759 -1 c-2096 -1 -3795 -6 -3843 -11z"/>
</g>
</svg>
