<?xml version="1.0" standalone="no"?>
<!DOCTYPE svg PUBLIC "-//W3C//DTD SVG 20010904//EN"
 "http://www.w3.org/TR/2001/REC-SVG-20010904/DTD/svg10.dtd">
<svg version="1.0" xmlns="http://www.w3.org/2000/svg"
 width="865.000000pt" height="448.000000pt" viewBox="0 0 865.000000 448.000000"
 preserveAspectRatio="xMidYMid meet">

<g transform="translate(0.000000,448.000000) scale(0.100000,-0.100000)"
fill="#000000" stroke="none">
<path d="M3033 4255 c-79 -17 -203 -81 -269 -139 -201 -176 -262 -490 -143
-729 81 -162 213 -271 392 -325 41 -12 133 -16 433 -21 l381 -6 35 -27 c50
-38 75 -105 59 -157 -15 -50 -43 -85 -85 -105 -30 -14 -87 -16 -450 -16 -265
0 -434 -4 -468 -11 -119 -25 -238 -112 -301 -219 -30 -52 -57 -147 -57 -203
l0 -38 653 3 c724 4 687 1 827 74 131 68 243 199 291 341 21 59 24 86 24 213
0 140 -2 148 -33 225 -74 184 -219 314 -415 373 -42 12 -127 16 -422 19 -221
2 -381 8 -396 14 -36 14 -74 57 -88 98 -21 64 20 150 85 177 27 11 164 14 754
14 l720 0 0 -775 0 -775 235 0 235 0 0 783 c0 460 -4 807 -10 842 -29 181
-184 342 -361 375 -31 6 -354 10 -808 9 -595 0 -769 -3 -818 -14z"/>
<path d="M5514 4255 c-190 -41 -324 -195 -349 -397 l-6 -58 278 0 c153 0 307
5 343 11 201 32 351 193 374 402 l6 57 -292 -1 c-204 0 -312 -5 -354 -14z"/>
<path d="M5170 3319 l0 -262 55 7 c238 28 405 218 405 461 l0 55 -230 0 -230
0 0 -261z"/>
<path d="M1120 1195 l0 -395 60 0 60 0 0 395 0 395 -60 0 -60 0 0 -395z"/>
<path d="M5691 1500 c-22 -50 -41 -93 -41 -95 0 -3 24 -5 53 -5 l52 0 60 77
c33 43 66 85 73 95 12 17 8 18 -71 18 l-84 0 -42 -90z"/>
<path d="M7160 1430 l0 -159 -36 24 c-121 82 -287 39 -348 -89 -63 -133 -28
-314 72 -381 96 -63 252 -47 310 31 l19 27 12 -36 c15 -46 35 -57 100 -57 l51
0 0 45 c0 33 -3 43 -14 39 -7 -3 -21 2 -30 11 -14 15 -16 56 -16 361 l0 344
-60 0 -60 0 0 -160z m-80 -212 c61 -32 85 -75 85 -158 0 -98 -48 -163 -125
-170 -59 -5 -81 1 -119 35 -92 83 -74 248 33 296 53 24 73 24 126 -3z"/>
<path d="M826 1559 c-35 -28 -37 -95 -3 -127 35 -33 99 -30 126 4 67 85 -38
190 -123 123z"/>
<path d="M2043 1570 c-48 -19 -58 -95 -18 -135 31 -32 96 -34 125 -5 31 31 28
102 -6 129 -28 22 -64 26 -101 11z"/>
<path d="M309 1556 c-98 -26 -149 -92 -149 -193 0 -112 59 -173 218 -223 130
-42 160 -57 177 -91 46 -87 -23 -159 -151 -159 -65 0 -161 23 -216 51 l-39 20
3 -58 3 -58 60 -25 c53 -22 75 -25 190 -25 115 0 135 3 171 22 104 56 144 182
91 284 -30 57 -99 99 -228 139 -124 38 -159 66 -159 124 0 54 27 81 98 97 60
14 150 2 227 -31 l45 -19 0 53 c0 52 -1 53 -37 69 -85 37 -215 47 -304 23z"/>
<path d="M3230 1175 l0 -375 60 0 60 0 0 165 0 165 150 0 150 0 0 50 0 50
-150 0 -150 0 0 110 0 110 170 0 170 0 0 50 0 50 -230 0 -230 0 0 -375z"/>
<path d="M2425 1330 c-89 -19 -95 -24 -95 -81 0 -45 2 -50 18 -44 115 45 207
42 258 -9 29 -29 55 -98 42 -112 -3 -2 -21 2 -41 11 -101 42 -230 24 -286 -40
-37 -43 -45 -70 -39 -136 9 -86 69 -130 177 -132 76 0 121 16 174 63 33 28 37
30 37 12 0 -10 9 -31 21 -46 18 -22 28 -26 75 -26 l54 0 0 45 c0 38 -3 45 -20
45 -31 0 -40 32 -40 139 0 172 -27 245 -108 289 -47 26 -158 37 -227 22z m163
-305 c28 -9 54 -20 57 -25 3 -5 -1 -23 -9 -39 -57 -110 -236 -117 -236 -9 0
34 26 66 63 77 47 13 67 13 125 -4z"/>
<path d="M3955 1331 c-118 -31 -184 -125 -185 -262 0 -133 38 -202 137 -251
57 -28 72 -31 155 -30 54 0 110 6 133 15 38 13 40 16 43 61 3 42 1 47 -15 42
-90 -27 -166 -32 -228 -15 -50 14 -105 68 -105 103 l0 26 191 0 192 0 -5 84
c-6 107 -38 167 -110 204 -51 26 -149 37 -203 23z m167 -130 c19 -22 28 -42
28 -66 l0 -35 -129 0 c-72 0 -132 4 -135 8 -10 17 34 92 66 112 26 17 45 20
87 17 46 -3 59 -9 83 -36z"/>
<path d="M4636 1328 c-22 -6 -57 -29 -84 -54 -25 -24 -47 -44 -48 -44 -1 0 -5
20 -8 45 -7 45 -8 45 -47 45 l-39 0 0 -260 0 -260 55 0 55 0 1 43 c0 23 4 93
8 154 7 111 8 114 41 148 22 22 51 40 77 47 l43 10 0 69 c0 38 -3 69 -7 68 -5
-1 -25 -6 -47 -11z"/>
<path d="M5031 1326 c-24 -8 -61 -31 -82 -52 l-38 -37 -11 42 c-10 38 -13 41
-45 41 l-35 0 0 -260 0 -260 55 0 55 0 0 153 c0 174 14 221 72 257 41 25 114
27 147 4 43 -30 51 -71 51 -249 l0 -165 61 0 61 0 -4 193 c-4 204 -8 227 -62
285 -47 53 -145 73 -225 48z"/>
<path d="M5560 1322 l-65 -17 -3 -54 c-3 -48 -1 -53 15 -47 40 16 129 36 158
36 16 0 49 -9 73 -20 45 -20 72 -63 72 -115 l0 -25 -37 16 c-59 26 -187 24
-240 -4 -64 -33 -88 -75 -88 -149 0 -46 5 -68 21 -90 66 -90 249 -90 333 1
l25 26 20 -42 c21 -43 22 -43 79 -46 l57 -3 0 45 c0 39 -3 45 -22 48 -29 4
-35 32 -37 164 0 56 -8 122 -16 150 -36 123 -170 171 -345 126z m219 -307 c41
-20 39 -39 -7 -85 -63 -63 -152 -74 -192 -22 -71 89 79 170 199 107z"/>
<path d="M6331 1329 c-29 -7 -57 -24 -86 -53 l-43 -43 -8 41 c-8 38 -11 41
-46 44 l-38 3 0 -260 0 -261 54 0 54 0 4 163 c3 146 5 165 25 197 45 72 143
94 201 45 41 -34 52 -92 52 -265 l0 -140 56 0 56 0 -4 193 c-3 178 -5 196 -26
240 -41 81 -144 121 -251 96z"/>
<path d="M7607 1324 c-70 -22 -131 -87 -153 -160 -21 -74 -15 -183 14 -239 49
-95 131 -138 267 -137 49 0 108 6 130 14 39 13 40 15 43 62 3 43 1 48 -15 42
-39 -16 -130 -28 -173 -24 -86 9 -160 64 -160 121 0 16 16 17 191 17 l191 0
-4 89 c-3 80 -6 94 -33 133 -17 23 -50 53 -73 66 -54 30 -158 38 -225 16z
m158 -100 c35 -16 69 -71 63 -102 -3 -15 -20 -17 -136 -20 -132 -3 -132 -3
-132 20 0 86 117 144 205 102z"/>
<path d="M830 1060 l0 -260 55 0 55 0 0 260 0 260 -55 0 -55 0 0 -260z"/>
<path d="M1455 1063 l103 -258 76 0 77 0 99 250 c55 138 100 253 100 258 0 4
-26 7 -58 7 l-59 0 -73 -197 c-40 -109 -75 -202 -78 -207 -7 -13 -16 6 -86
195 -35 96 -67 182 -71 192 -6 14 -19 17 -70 17 l-63 0 103 -257z"/>
<path d="M2030 1060 l0 -260 60 0 60 0 0 260 0 260 -60 0 -60 0 0 -260z"/>
<path d="M8050 1275 l0 -45 135 0 c87 0 135 -4 135 -10 0 -6 -63 -85 -140
-175 -130 -152 -140 -166 -140 -204 l0 -41 235 0 235 0 0 50 0 50 -150 0 c-82
0 -150 2 -150 5 0 3 63 80 140 170 130 152 140 166 140 204 l0 41 -220 0 -220
0 0 -45z"/>
<path d="M2650 490 c-42 -42 -20 -93 51 -115 60 -17 79 -31 79 -56 0 -51 -84
-68 -118 -24 -23 29 -32 32 -32 10 0 -31 38 -55 88 -55 59 0 82 20 82 73 0 42
-19 59 -87 77 -24 6 -47 19 -52 29 -15 27 13 61 49 61 28 0 60 -22 60 -41 0
-5 7 -9 15 -9 17 0 11 25 -13 53 -22 25 -96 23 -122 -3z"/>
<path d="M3140 380 l0 -130 80 0 c47 0 80 4 80 10 0 6 -28 10 -65 10 l-65 0 0
50 0 50 55 0 c30 0 55 5 55 10 0 6 -25 10 -55 10 l-55 0 0 50 0 50 65 0 c37 0
65 4 65 10 0 6 -33 10 -80 10 l-80 0 0 -130z"/>
<path d="M3692 494 c-34 -23 -52 -67 -52 -125 0 -45 4 -55 34 -85 29 -29 41
-34 81 -34 25 0 55 5 66 10 24 13 49 61 49 95 0 23 -3 25 -50 25 -27 0 -50 -4
-50 -10 0 -5 18 -10 40 -10 48 0 52 -15 14 -59 -47 -56 -131 -37 -154 35 -17
50 -5 98 31 128 42 35 83 34 121 -4 16 -16 34 -30 39 -30 15 0 -19 58 -40 70
-29 15 -104 12 -129 -6z"/>
<path d="M4210 405 c0 -99 2 -107 25 -130 19 -20 34 -25 74 -25 42 0 53 4 70
26 18 23 21 41 21 130 0 63 -4 104 -10 104 -6 0 -10 -38 -10 -94 0 -79 -3 -97
-21 -120 -26 -33 -77 -36 -105 -5 -15 17 -20 40 -22 120 -2 54 -8 99 -13 99
-5 0 -9 -47 -9 -105z"/>
<path d="M4750 380 c0 -80 4 -130 10 -130 6 0 10 25 10 55 l0 55 33 0 c29 0
35 -6 62 -55 16 -30 35 -55 42 -55 19 0 17 7 -17 62 -34 55 -35 58 -16 58 18
0 46 43 46 70 0 12 -11 32 -25 45 -20 21 -34 25 -85 25 l-60 0 0 -130z m122
93 c43 -39 2 -98 -64 -91 -30 3 -33 6 -36 42 -2 21 -1 44 2 52 8 20 75 18 98
-3z"/>
<path d="M5298 481 c-29 -25 -32 -35 -36 -95 -4 -64 -3 -67 31 -101 31 -31 41
-35 87 -35 46 0 56 4 86 34 31 31 34 39 34 96 0 57 -3 65 -34 96 -30 30 -40
34 -85 34 -42 0 -56 -5 -83 -29z m141 -17 c76 -64 37 -194 -59 -194 -42 0 -86
35 -96 77 -17 65 35 143 96 143 16 0 42 -11 59 -26z"/>
<path d="M5860 490 c-42 -42 -20 -93 51 -115 60 -17 79 -31 79 -56 0 -51 -84
-68 -118 -24 -23 29 -32 32 -32 10 0 -31 38 -55 88 -55 59 0 82 20 82 73 0 42
-19 59 -87 77 -24 6 -47 19 -52 29 -15 27 13 61 49 61 28 0 60 -22 60 -41 0
-5 7 -9 15 -9 17 0 11 25 -13 53 -22 25 -96 23 -122 -3z"/>
</g>
</svg>
