<svg width="462" height="392" viewBox="0 0 462 392" fill="none" xmlns="http://www.w3.org/2000/svg">
<path d="M425.228 325.257C425.131 325.257 426.659 318.589 426.8 318.177C428.47 313.438 434.499 305.251 440.127 305.403C441.063 305.453 441.977 305.7 442.811 306.127C443.645 306.555 444.379 307.154 444.965 307.885C445.552 308.615 445.977 309.462 446.214 310.368C446.451 311.275 446.494 312.221 446.34 313.145C445.83 317.081 442.198 320.367 438.934 322.232C435.096 324.422 425.239 325.257 425.228 325.257Z" fill="#263238"/>
<path d="M425.857 298.127C425.759 298.127 428.275 291.751 428.481 291.372C430.856 286.926 438.045 279.748 443.586 280.756C444.502 280.948 445.368 281.331 446.127 281.879C446.886 282.428 447.521 283.13 447.99 283.94C448.46 284.75 448.753 285.65 448.852 286.581C448.951 287.512 448.852 288.454 448.563 289.344C447.479 293.172 443.369 295.85 439.888 297.206C435.735 298.8 425.868 298.127 425.857 298.127Z" fill="#263238"/>
<path d="M432.927 267.972C432.818 267.972 435.334 261.596 435.54 261.217C437.915 256.782 445.115 249.604 450.656 250.601C451.572 250.794 452.438 251.178 453.197 251.727C453.956 252.277 454.59 252.981 455.058 253.792C455.527 254.603 455.819 255.504 455.916 256.436C456.013 257.368 455.913 258.309 455.622 259.2C454.538 263.017 450.428 265.706 446.947 267.061C442.805 268.644 432.927 267.972 432.927 267.972Z" fill="#263238"/>
<path d="M438.208 239.216C438.099 239.216 440.615 232.84 440.821 232.449C443.195 228.015 450.395 220.836 455.936 221.845C456.853 222.036 457.719 222.419 458.478 222.967C459.236 223.516 459.871 224.218 460.341 225.028C460.81 225.838 461.104 226.738 461.203 227.669C461.301 228.601 461.203 229.542 460.913 230.433C459.829 234.26 455.709 236.939 452.239 238.294C448.086 239.877 438.208 239.216 438.208 239.216Z" fill="#263238"/>
<path d="M435.963 214.222C435.855 214.222 436.603 207.434 436.7 207.011C437.785 202.099 442.859 193.273 448.476 192.785C449.41 192.729 450.346 192.87 451.222 193.2C452.098 193.529 452.895 194.039 453.56 194.697C454.226 195.354 454.746 196.145 455.086 197.017C455.427 197.888 455.58 198.822 455.535 199.757C455.535 203.736 452.282 207.412 449.224 209.635C445.668 212.216 435.963 214.222 435.963 214.222Z" fill="#263238"/>
<path d="M422.496 324.52C422.593 324.52 421.509 317.775 421.411 317.363C420.056 312.516 414.58 303.95 408.952 303.733C408.015 303.723 407.087 303.91 406.227 304.282C405.367 304.654 404.595 305.204 403.962 305.894C403.329 306.585 402.848 307.401 402.552 308.29C402.255 309.179 402.149 310.12 402.24 311.053C402.49 315.021 405.905 318.534 409.039 320.606C412.704 323.045 422.485 324.52 422.496 324.52Z" fill="#263238"/>
<path d="M425.467 294.354C425.575 294.354 423.472 287.848 423.298 287.436C421.216 282.849 414.504 275.215 408.909 275.855C407.982 275.988 407.093 276.314 406.3 276.812C405.507 277.311 404.829 277.971 404.308 278.749C403.787 279.528 403.436 280.407 403.278 281.33C403.12 282.254 403.158 283.2 403.39 284.107C404.236 287.989 408.15 290.949 411.555 292.521C415.567 294.376 425.456 294.354 425.467 294.354Z" fill="#263238"/>
<path d="M432.19 265.923C432.287 265.923 430.194 259.417 430.021 259.016C427.95 254.429 421.238 246.795 415.643 247.435C414.716 247.566 413.827 247.891 413.034 248.388C412.241 248.886 411.561 249.545 411.039 250.322C410.518 251.099 410.166 251.978 410.006 252.9C409.846 253.823 409.883 254.768 410.113 255.676C410.969 259.569 414.873 262.518 418.288 264.101C422.29 265.944 432.179 265.923 432.19 265.923Z" fill="#263238"/>
<path d="M437.102 239.465C437.21 239.465 435.107 232.959 434.933 232.547C432.851 227.971 426.15 220.337 420.544 220.977C419.617 221.108 418.729 221.433 417.936 221.93C417.143 222.428 416.464 223.087 415.943 223.865C415.423 224.642 415.072 225.521 414.913 226.443C414.755 227.366 414.793 228.311 415.025 229.218C415.87 233.111 419.785 236.06 423.201 237.633C427.202 239.487 437.102 239.465 437.102 239.465Z" fill="#263238"/>
<path d="M435.757 215.035C435.865 215.035 433.068 208.779 432.84 208.399C430.27 204.062 422.767 197.22 417.269 198.477C416.362 198.71 415.514 199.131 414.781 199.713C414.047 200.295 413.445 201.026 413.013 201.857C412.581 202.688 412.329 203.601 412.274 204.535C412.219 205.47 412.362 206.406 412.693 207.282C413.962 211.045 418.169 213.56 421.737 214.742C425.922 216.141 435.757 215.035 435.757 215.035Z" fill="#263238"/>
<path d="M429.837 193.414C429.923 193.414 430.325 186.615 430.303 186.181C430.01 181.15 426.508 171.608 421.053 170.187C420.141 169.977 419.195 169.96 418.276 170.14C417.357 170.319 416.487 170.689 415.721 171.227C414.954 171.765 414.31 172.459 413.83 173.262C413.349 174.066 413.043 174.961 412.932 175.891C412.325 179.827 414.905 183.991 417.519 186.734C420.587 189.857 429.826 193.403 429.837 193.414Z" fill="#263238"/>
<path d="M424.339 361.691C424.339 361.691 423.981 358.817 423.547 353.829C423.114 348.842 422.615 341.707 422.387 333.13C422.268 328.792 422.225 324.195 422.311 319.272C422.311 316.8 422.441 314.327 422.539 311.682C422.626 310.402 422.723 309.112 422.81 307.8C422.897 306.488 423.114 305.143 423.255 303.798C423.997 298.325 425.036 292.895 426.367 287.533C427.7 282.058 429.218 276.56 430.704 271.073C432.19 265.587 433.653 260.1 434.803 254.646C435.972 249.32 436.758 243.917 437.156 238.478C437.435 233.387 437.261 228.282 436.635 223.222C436.122 218.636 435.336 214.084 434.282 209.592C433.328 205.439 432.211 201.687 431.192 198.38C430.173 195.073 429.121 192.232 428.253 189.9C426.486 185.238 425.282 182.657 425.282 182.657C425.282 182.657 426.54 185.216 428.405 189.835C429.338 192.145 430.411 194.975 431.539 198.26C432.667 201.546 433.838 205.287 434.879 209.44C436.049 213.901 436.958 218.427 437.6 222.994C438.347 228.105 438.637 233.272 438.468 238.435C438.178 243.948 437.5 249.434 436.44 254.852C435.356 260.382 434.055 265.934 432.677 271.464C431.3 276.994 429.858 282.535 428.655 287.956C427.459 293.26 426.554 298.624 425.944 304.026C425.835 305.338 425.64 306.585 425.597 307.908C425.553 309.231 425.467 310.521 425.402 311.801C425.402 314.273 425.326 316.832 425.347 319.25C425.347 324.119 425.51 328.716 425.727 332.956C426.128 341.446 426.811 348.505 427.321 353.428C427.83 358.351 428.264 361.127 428.264 361.127C428.302 361.384 428.289 361.646 428.225 361.898C428.162 362.15 428.049 362.387 427.894 362.595C427.739 362.804 427.545 362.979 427.321 363.113C427.098 363.246 426.851 363.334 426.594 363.372C426.337 363.409 426.075 363.396 425.824 363.333C425.572 363.269 425.335 363.157 425.126 363.001C424.918 362.846 424.742 362.652 424.609 362.429C424.476 362.206 424.388 361.959 424.35 361.702V361.691H424.339Z" fill="#263238"/>
<path d="M412.281 350.49H439.314V356.085H436.961L432.081 386.62H419.524L414.634 356.085H412.281V350.49Z" fill="#263238" stroke="#263238" stroke-linecap="round" stroke-linejoin="round"/>
<path d="M234.158 370.908C234.158 370.908 233.226 376.405 233.909 377.641C234.592 378.878 235.687 380.504 235.687 380.504H244.297L244.763 377.847C245.95 379.165 247.407 380.212 249.035 380.916C251.323 381.729 253.535 380.916 256.214 381.122C258.48 381.296 263.804 381.122 263.804 381.122L263.652 378.249L248.114 371.287L242.551 366.95C242.551 366.95 237.672 371.352 234.158 370.908Z" fill="#263238" stroke="#263238" stroke-linecap="round" stroke-linejoin="round"/>
<path d="M170.031 370.908C170.031 370.908 171.506 375.386 170.963 376.611C170.421 377.837 169.532 380.504 169.532 380.504H160.933L160.174 377.847C159.127 379.171 157.777 380.224 156.238 380.916C154.07 381.729 151.727 380.916 149.082 381.122C146.837 381.296 141.491 381.122 141.491 381.122L141.339 378.249L156.119 371.287L161.985 368.034C161.985 368.034 166.561 371.352 170.031 370.908Z" fill="#263238" stroke="#263238" stroke-linecap="round" stroke-linejoin="round"/>
<path d="M238.799 159.506C238.799 159.506 242.356 205.547 243.592 227.559C244.828 249.571 245.403 259.558 245.544 275.053C245.685 290.548 246.368 321.169 246.368 332.674C246.38 344.419 245.615 356.152 244.08 367.796L233.681 373.337C233.681 373.337 230.32 343.799 228.964 333.216C227.739 323.642 223.261 284.682 221.233 272.635C219.205 260.588 209.967 218.7 209.967 218.7C209.967 218.7 197.638 262.648 194.45 280.203C191.262 297.759 179.269 337.348 176.7 346.976C174.13 356.605 170.031 370.886 170.031 370.886C168.586 371.31 167.068 371.428 165.574 371.233C164.904 371.18 164.257 370.964 163.69 370.603C163.123 370.242 162.653 369.747 162.321 369.162C162.321 369.162 165.347 340.34 166.594 326.331C168.144 308.982 168.632 285.95 170.519 276.311C172.406 266.671 172.341 248.205 174.531 235.811C175.778 228.774 182.121 161.447 182.121 161.447C182.121 161.447 217.297 175.685 238.799 159.506Z" fill="#263238" stroke="#263238" stroke-linecap="round" stroke-linejoin="round"/>
<path d="M244.08 367.796L235.98 374.367" stroke="white" stroke-width="0.5" stroke-linecap="round" stroke-linejoin="round"/>
<path d="M161.996 368.012L168.426 372.946" stroke="white" stroke-width="0.5" stroke-linecap="round" stroke-linejoin="round"/>
<path d="M215.28 175.002L214.629 201.85L219.184 197.306" stroke="white" stroke-width="0.5" stroke-linecap="round" stroke-linejoin="round"/>
<path d="M212.439 217.919L225.375 201.828" stroke="white" stroke-width="0.5" stroke-linecap="round" stroke-linejoin="round"/>
<path d="M228.964 202.999L218.175 213.582" stroke="white" stroke-width="0.5" stroke-linecap="round" stroke-linejoin="round"/>
<path d="M204.74 204.181C201.403 196.792 195.699 190.726 188.53 186.94" stroke="white" stroke-width="0.5" stroke-linecap="round" stroke-linejoin="round"/>
<path d="M221.19 167.737L220.572 170.881L215.54 172.052L216.115 168.138" stroke="white" stroke-width="0.5" stroke-linecap="round" stroke-linejoin="round"/>
<path d="M215.54 172.052C215.54 172.052 206.117 171.662 201.335 170.09L202.344 166.956" stroke="white" stroke-width="0.5" stroke-linecap="round" stroke-linejoin="round"/>
<path d="M197.985 166.175L197.031 170.09C197.031 170.09 189.56 169.699 188.356 168.528" stroke="white" stroke-width="0.5" stroke-linecap="round" stroke-linejoin="round"/>
<path d="M220.572 170.849C223.136 170.773 225.649 170.105 227.913 168.897L231.328 166.934L230.005 164.191" stroke="white" stroke-width="0.5" stroke-linecap="round" stroke-linejoin="round"/>
<path d="M243.44 69.4094C243.44 69.4094 250.25 75.319 252.288 79.2226C254.327 83.1262 281.088 137.69 280.98 141.42C280.871 145.15 276.913 152.263 269.93 152.263C262.947 152.263 236.479 109.736 236.479 109.736L243.44 69.4094Z" fill="white"/>
<mask id="mask0_33_485" style="mask-type:luminance" maskUnits="userSpaceOnUse" x="236" y="69" width="45" height="84">
<path d="M243.44 69.4094C243.44 69.4094 250.25 75.319 252.288 79.2226C254.327 83.1262 281.088 137.69 280.98 141.42C280.871 145.15 276.913 152.263 269.93 152.263C262.947 152.263 236.479 109.736 236.479 109.736L243.44 69.4094Z" fill="white"/>
</mask>
<g mask="url(#mask0_33_485)">
<g style="mix-blend-mode:multiply" opacity="0.5">
<path d="M244.275 75.9588L244.731 76.2082C245.533 76.6744 247.333 77.7263 249.306 79.0383C251.536 80.7488 253.569 82.7018 255.368 84.8611C255.368 84.8611 252.917 78.3552 249.328 75.2431C247.332 73.5282 245.476 71.6573 243.776 69.648L244.275 75.9588Z" fill="#92E3A9"/>
</g>
</g>
<path d="M243.44 69.4094C243.44 69.4094 250.25 75.319 252.288 79.2226C254.327 83.1262 281.088 137.69 280.98 141.42C280.871 145.15 276.913 152.263 269.93 152.263C262.947 152.263 236.479 109.736 236.479 109.736L243.44 69.4094Z" stroke="#263238" stroke-linecap="round" stroke-linejoin="round"/>
<path opacity="0.5" d="M260.497 126.467C259.597 125.383 252.906 114.615 252.223 110.592C251.54 106.569 253.307 101.419 253.307 98.7297C253.307 96.0406 249.057 103.425 248.829 102.536C248.601 101.647 245.923 92.0177 245.923 92.0177L237.715 102.633L236.49 109.757C236.49 109.757 246.856 126.402 256.333 138.861C263.077 136.692 273.259 133.385 275.45 132.062C278.843 130.056 261.397 127.595 260.497 126.467Z" fill="#92E3A9"/>
<path d="M210.748 62.036L243.483 69.4094C243.483 69.4094 245.761 86.184 245.5 95.249C245.24 104.314 238.496 160.374 238.496 160.374C238.496 160.374 221.146 178.07 182.197 161.458C182.197 161.458 180.842 158.845 180.332 139.305C179.844 120.037 165.357 84.2539 166.518 80.1768C168.903 71.8166 197.551 63.7817 201.314 63.554C204.488 63.2523 207.639 62.7452 210.748 62.036Z" fill="white" stroke="#263238" stroke-linecap="round" stroke-linejoin="round"/>
<g style="mix-blend-mode:multiply" opacity="0.5">
<path d="M213.708 160.276L183.726 148.522L188.909 91.5732L223.011 107.535L243.451 98.3394L228.834 157.772L213.708 160.276Z" fill="#92E3A9"/>
</g>
<g style="mix-blend-mode:multiply" opacity="0.5">
<path d="M222.578 71.8709C223.976 71.8709 236.913 74.4624 244.264 75.9588C243.841 72.1203 243.473 69.4528 243.473 69.4528L210.737 62.0794C207.629 62.7922 204.477 63.303 201.303 63.6083C197.54 63.836 168.892 71.8709 166.507 80.2311C166.127 81.5865 167.45 86.4009 169.413 92.9394C172.276 85.5551 174.835 79.472 175.713 78.6154C177.686 76.6419 197.399 71.5239 197.399 71.5239L222.578 71.8709Z" fill="#92E3A9"/>
</g>
<path d="M219.639 78.778L215.139 88.8406L225.007 158.563L217.774 168.322L210.91 160.363L212.829 89.7298L203.743 79.125L209.555 68.1299L219.639 78.778Z" fill="#263238"/>
<path d="M254.5 101.31L228.27 115.862L194.537 98.2093L189.191 148.034L222.599 164.137L247.897 148.913L254.5 101.31Z" fill="#92E3A9" stroke="#263238" stroke-linecap="round" stroke-linejoin="round"/>
<path d="M227.273 127.052L228.27 119.05" stroke="#263238" stroke-width="0.5" stroke-linecap="round" stroke-linejoin="round"/>
<path d="M222.599 164.137L226.72 131.444" stroke="#263238" stroke-width="0.5" stroke-linecap="round" stroke-linejoin="round"/>
<path d="M213.794 59.2384C213.794 59.2384 219.704 59.2384 222.274 63.142C224.844 67.0456 229.778 82.4756 229.778 82.4756L211.995 77.4769L201.216 88.6129C201.216 88.6129 191.338 73.9745 195.361 64.6817C199.384 55.389 213.794 59.2384 213.794 59.2384Z" fill="white" stroke="#263238" stroke-linecap="round" stroke-linejoin="round"/>
<g style="mix-blend-mode:multiply" opacity="0.5">
<path d="M224.074 66.7528C223.565 65.5059 222.963 64.299 222.274 63.142C219.704 59.1842 213.794 59.2384 213.794 59.2384C213.794 59.2384 199.405 55.389 195.361 64.6601C194.06 67.6637 194.276 71.2311 195.025 74.6793C195.73 72.8359 197.323 69.1383 199.362 67.089C202.116 64.3348 202.442 66.7311 202.442 66.7311L217.861 65.5058C219.903 66.0537 221.978 66.4702 224.074 66.7528Z" fill="#92E3A9"/>
</g>
<path d="M216.332 50.2601C216.332 50.2601 217.329 70.7757 214.738 74.8202C212.146 78.8648 209.197 77.3142 207.039 74.8202C204.881 72.3263 202.442 66.7528 202.442 66.7528L199.807 51.5722C199.807 51.5722 215.161 54.4023 216.332 50.2601Z" fill="white" stroke="#263238" stroke-linecap="round" stroke-linejoin="round"/>
<g style="mix-blend-mode:multiply" opacity="0.5">
<path d="M210.769 66.7528C213.002 66.113 214.986 64.8035 216.451 63.001C216.451 61.8408 216.451 60.6914 216.451 59.5746C213.925 56.6794 208.123 51.2144 201.661 52.971C201.108 53.1228 200.576 53.2963 200.089 53.4698L202.431 66.7528C202.431 66.7528 204.881 72.3697 207.028 74.8203L204.86 65.1372C205.616 65.9015 206.561 66.4531 207.598 66.7367C208.635 67.0204 209.729 67.0259 210.769 66.7528Z" fill="#92E3A9"/>
</g>
<path d="M225.375 31.5988C225.375 31.5988 228.346 31.3819 228.411 36.3373C228.476 41.2927 225.56 45.4565 223.554 43.7325C221.547 42.0084 224.822 29.3434 225.375 31.5988Z" fill="white" stroke="#263238" stroke-linecap="round" stroke-linejoin="round"/>
<path d="M204.979 5.94352C191.457 9.13146 187.836 17.8712 187.944 25.7868C187.944 28.8121 189.343 34.0494 191.197 39.5686L190.959 39.0698C190.959 39.0698 186.892 31.9783 186.296 36.2397C185.7 40.5012 189.722 44.9144 191.056 46.3349C191.426 46.6758 191.904 46.8774 192.406 46.9051C192.909 46.9328 193.405 46.7848 193.81 46.4867C196.5 52.9926 199.503 58.8155 201.466 60.3986C205.716 63.836 211.691 65.6034 216.44 61.483C221.19 57.3625 225.885 33.865 225.885 33.865C227.013 10.0965 218.501 2.77728 204.979 5.94352Z" fill="white"/>
<mask id="mask1_33_485" style="mask-type:luminance" maskUnits="userSpaceOnUse" x="186" y="5" width="40" height="59">
<path d="M204.979 5.94352C191.457 9.13146 187.836 17.8712 187.944 25.7868C187.944 28.8121 189.343 34.0494 191.197 39.5686L190.959 39.0698C190.959 39.0698 186.892 31.9783 186.296 36.2397C185.7 40.5012 189.722 44.9144 191.056 46.3349C191.426 46.6758 191.904 46.8774 192.406 46.9051C192.909 46.9328 193.405 46.7848 193.81 46.4867C196.5 52.9926 199.503 58.8155 201.466 60.3986C205.716 63.836 211.691 65.6034 216.44 61.483C221.19 57.3625 225.885 33.865 225.885 33.865C227.013 10.0965 218.501 2.77728 204.979 5.94352Z" fill="white"/>
</mask>
<g mask="url(#mask1_33_485)">
<g style="mix-blend-mode:multiply" opacity="0.5">
<path d="M197.779 30.9699C197.779 30.9699 202.496 27.0338 207.224 27.0338C211.951 27.0338 221.797 31.3711 222.968 34.906C223.684 37.0747 222.838 44.0686 222.046 49.3818C224.323 41.8999 225.928 33.8976 225.928 33.8976C227.013 10.1399 218.49 2.79896 204.979 5.9869C191.468 9.17483 187.836 17.9145 187.944 25.8302C187.944 28.8554 189.343 34.0928 191.197 39.612L190.959 39.1132C190.959 39.1132 186.892 32.0217 186.296 36.2831C185.7 40.5445 189.722 44.9578 191.056 46.3782C191.426 46.7192 191.904 46.9208 192.406 46.9484C192.909 46.9761 193.405 46.8282 193.81 46.53C196.5 53.036 199.503 58.8589 201.466 60.442C201.466 60.442 196.944 50.2601 195.372 45.9337C193.8 41.6072 194.233 34.0819 197.779 30.9699Z" fill="#92E3A9"/>
</g>
</g>
<path d="M204.979 5.94352C191.457 9.13146 187.836 17.8712 187.944 25.7868C187.944 28.8121 189.343 34.0494 191.197 39.5686L190.959 39.0698C190.959 39.0698 186.892 31.9783 186.296 36.2397C185.7 40.5012 189.722 44.9144 191.056 46.3349C191.426 46.6758 191.904 46.8774 192.406 46.9051C192.909 46.9328 193.405 46.7848 193.81 46.4867C196.5 52.9926 199.503 58.8155 201.466 60.3986C205.716 63.836 211.691 65.6034 216.44 61.483C221.19 57.3625 225.885 33.865 225.885 33.865C227.013 10.0965 218.501 2.77728 204.979 5.94352Z" stroke="#263238" stroke-linecap="round" stroke-linejoin="round"/>
<path d="M220.875 40.7831C220.198 41.8013 219.148 42.5128 217.952 42.7643C216.755 43.0158 215.507 42.7872 214.478 42.1276" stroke="#263238" stroke-linecap="round" stroke-linejoin="round"/>
<path d="M206.443 42.2144C205.766 43.2327 204.716 43.9442 203.519 44.1957C202.322 44.4472 201.075 44.2185 200.045 43.559" stroke="#263238" stroke-linecap="round" stroke-linejoin="round"/>
<path d="M207.137 38.9397C205.389 38.0627 203.497 37.508 201.552 37.3024C198.972 37.194 196.434 39.2976 196.434 39.2976" stroke="#263238" stroke-linecap="round" stroke-linejoin="round"/>
<path d="M213.361 49.8915C213.269 50.5504 212.922 51.1469 212.395 51.5525C211.867 51.9581 211.202 52.1404 210.542 52.0601C209.852 52.0811 209.17 51.9109 208.571 51.5683C207.972 51.2258 207.479 50.7243 207.148 50.1192" stroke="#263238" stroke-linecap="round" stroke-linejoin="round"/>
<path d="M215.638 55.1288C215.638 55.1288 209.305 57.0155 205.239 55.3782C205.77 56.3332 206.497 57.1657 207.371 57.8214C208.245 58.4772 209.248 58.9415 210.314 59.1842C212.721 59.8239 215.638 55.1288 215.638 55.1288Z" fill="#263238"/>
<path d="M221.667 36.0879C221.667 36.0879 219.292 35.8819 217.048 35.9036C214.987 35.9036 212.938 38.5819 212.938 38.5819L212.211 41.8349" stroke="#263238" stroke-linecap="round" stroke-linejoin="round"/>
<path d="M202.127 24.388C207.044 28.506 212.418 32.046 218.143 34.9385C227.468 39.6012 234.624 30.6012 230.255 26.1771C225.885 21.7531 235.947 31.035 237.53 25.4832C239.114 19.9314 224.627 0.879701 210.075 0.608618C195.523 0.337535 191.999 9.45676 191.999 9.45676C191.999 9.45676 190.286 4.76161 188.996 7.35316C188.245 8.76359 187.816 10.3224 187.738 11.9182C187.738 11.9182 184.789 14.0869 183.487 15.3772C182.186 16.6676 183.856 18.0338 183.856 18.0338C183.856 18.0338 181.254 24.5398 182.642 29.5603L190.113 40.4036C191.014 40.3744 191.896 40.1381 192.692 39.7132C193.487 39.2882 194.174 38.686 194.699 37.953C196.651 35.394 195.22 27.4133 195.22 27.4133C195.22 27.4133 195.339 36.0012 197.627 34.1145C199.915 32.2277 196.543 23.835 196.543 23.835L202.127 24.388Z" fill="#263238"/>
<path d="M195.632 15.5182C195.632 15.5182 202.29 20.5278 207.104 25.1036C211.919 29.6795 219.26 31.4361 221.439 30.4277" stroke="white" stroke-width="0.5" stroke-miterlimit="10" stroke-linecap="round"/>
<path d="M216.202 21.8181C216.202 21.8181 206.66 19.6495 204.415 15.5073C202.171 11.3652 195.22 11.8531 195.22 11.8531C196.956 10.252 199.075 9.12394 201.372 8.57709C203.67 8.03024 206.069 8.08298 208.34 8.73024" stroke="white" stroke-width="0.5" stroke-miterlimit="10" stroke-linecap="round"/>
<path d="M192.01 17.5675C192.01 17.5675 199.47 28.812 194.764 32.2711" stroke="white" stroke-width="0.5" stroke-miterlimit="10" stroke-linecap="round"/>
<path d="M166.518 80.1877C166.518 80.1877 146.273 135.38 147.206 141.539C148.138 147.698 158.765 145.248 162.115 144.413C165.466 143.578 178.38 123.084 178.467 118.671C179.301 118.149 180.015 117.455 180.561 116.637C181.107 115.818 181.472 114.892 181.633 113.921C182.425 110.365 182.967 97.6563 177.827 88.125" fill="white"/>
<mask id="mask2_33_485" style="mask-type:luminance" maskUnits="userSpaceOnUse" x="147" y="80" width="36" height="66">
<path d="M166.518 80.1877C166.518 80.1877 146.273 135.38 147.206 141.539C148.138 147.698 158.765 145.248 162.115 144.413C165.466 143.578 178.38 123.084 178.467 118.671C179.301 118.149 180.015 117.455 180.561 116.637C181.107 115.818 181.472 114.892 181.633 113.921C182.425 110.365 182.967 97.6563 177.827 88.125" fill="white"/>
</mask>
<g mask="url(#mask2_33_485)">
<g style="mix-blend-mode:multiply" opacity="0.5">
<path d="M166.518 80.1877C166.518 80.1877 146.273 135.38 147.206 141.539C147.726 144.911 151.153 145.692 154.688 145.584C157.16 138.611 158.125 125.871 159.979 119.56C162.029 112.501 168.708 94.2298 172.774 84.6226L166.518 80.1877Z" fill="#92E3A9"/>
</g>
</g>
<path d="M166.518 80.1877C166.518 80.1877 146.273 135.38 147.206 141.539C148.138 147.698 158.765 145.248 162.115 144.413C165.466 143.578 178.38 123.084 178.467 118.671C179.301 118.149 180.015 117.455 180.561 116.637C181.107 115.818 181.472 114.892 181.633 113.921C182.425 110.365 182.967 97.6563 177.827 88.125" stroke="#263238" stroke-linecap="round" stroke-linejoin="round"/>
<path d="M181.817 136.497C181.817 136.497 155.794 134.914 152.454 134.643C149.114 134.372 145.113 138.98 148.257 145.356C151.402 151.732 156.401 152.101 162.538 150.94C168.675 149.78 182.23 141.507 182.23 141.507L181.817 136.497Z" fill="white"/>
<mask id="mask3_33_485" style="mask-type:luminance" maskUnits="userSpaceOnUse" x="147" y="134" width="36" height="18">
<path d="M181.817 136.497C181.817 136.497 155.794 134.914 152.454 134.643C149.114 134.372 145.113 138.98 148.257 145.356C151.402 151.732 156.401 152.101 162.538 150.94C168.675 149.78 182.23 141.507 182.23 141.507L181.817 136.497Z" fill="white"/>
</mask>
<g mask="url(#mask3_33_485)">
<path opacity="0.5" d="M181.817 136.497C181.817 136.497 155.794 134.914 152.454 134.643C149.114 134.372 145.113 138.98 148.257 145.356C151.402 151.732 156.401 152.101 162.538 150.94C168.675 149.78 182.23 141.507 182.23 141.507L181.817 136.497Z" fill="#92E3A9" stroke="#263238" stroke-linecap="round" stroke-linejoin="round"/>
</g>
<path d="M181.817 136.497C181.817 136.497 155.794 134.914 152.454 134.643C149.114 134.372 145.113 138.98 148.257 145.356C151.402 151.732 156.401 152.101 162.538 150.94C168.675 149.78 182.23 141.507 182.23 141.507L181.817 136.497Z" stroke="#263238" stroke-linecap="round" stroke-linejoin="round"/>
<path d="M185.97 130.154C185.97 130.154 189.332 126.586 190.221 126.662C191.11 126.738 197.638 126.38 198.191 127.909C198.744 129.438 197.866 128.766 196.966 129.275C196.066 129.785 191.598 130.36 191.598 130.36C191.598 130.36 195.448 130.674 196.608 131.357C197.768 132.04 202.68 136.573 202.658 137.462C202.637 138.351 202.04 138.546 200.848 138.546C199.655 138.546 200.533 139.403 200.208 140.26C199.882 141.116 197.529 140.932 197.529 140.932C197.529 140.932 197.735 143.903 195.957 143.751C194.179 143.599 190.991 141.279 190.991 141.279C190.991 141.279 184.409 143.686 182.045 143.502C180.493 143.432 178.95 143.78 177.578 144.51C179.566 139.295 182.401 134.444 185.97 130.154Z" fill="white"/>
<mask id="mask4_33_485" style="mask-type:luminance" maskUnits="userSpaceOnUse" x="177" y="126" width="26" height="19">
<path d="M185.97 130.154C185.97 130.154 189.332 126.586 190.221 126.662C191.11 126.738 197.638 126.38 198.191 127.909C198.744 129.438 197.866 128.766 196.966 129.275C196.066 129.785 191.598 130.36 191.598 130.36C191.598 130.36 195.448 130.674 196.608 131.357C197.768 132.04 202.68 136.573 202.658 137.462C202.637 138.351 202.04 138.546 200.848 138.546C199.655 138.546 200.533 139.403 200.208 140.26C199.882 141.116 197.529 140.932 197.529 140.932C197.529 140.932 197.735 143.903 195.957 143.751C194.179 143.599 190.991 141.279 190.991 141.279C190.991 141.279 184.409 143.686 182.045 143.502C180.493 143.432 178.95 143.78 177.578 144.51C179.566 139.295 182.401 134.444 185.97 130.154Z" fill="white"/>
</mask>
<g mask="url(#mask4_33_485)">
<g style="mix-blend-mode:multiply" opacity="0.5">
<path d="M185.97 130.154C182.411 134.415 179.575 139.232 177.578 144.413C178.95 143.682 180.493 143.334 182.045 143.404C182.822 143.417 183.598 143.334 184.355 143.155C184.826 141.081 185.105 138.969 185.19 136.844C185.19 133.689 190.221 126.662 190.221 126.662C189.321 126.586 185.97 130.154 185.97 130.154Z" fill="#92E3A9"/>
</g>
</g>
<path d="M185.97 130.154C185.97 130.154 189.332 126.586 190.221 126.662C191.11 126.738 197.638 126.38 198.191 127.909C198.744 129.438 197.866 128.766 196.966 129.275C196.066 129.785 191.598 130.36 191.598 130.36C191.598 130.36 195.448 130.674 196.608 131.357C197.768 132.04 202.68 136.573 202.658 137.462C202.637 138.351 202.04 138.546 200.848 138.546C199.655 138.546 200.533 139.403 200.208 140.26C199.882 141.116 197.529 140.932 197.529 140.932C197.529 140.932 197.735 143.903 195.957 143.751C194.179 143.599 190.991 141.279 190.991 141.279C190.991 141.279 184.409 143.686 182.045 143.502C180.493 143.432 178.95 143.78 177.578 144.51C179.566 139.295 182.401 134.444 185.97 130.154Z" stroke="#263238" stroke-linecap="round" stroke-linejoin="round"/>
<path d="M200.848 138.449L195.046 133.84L190.319 133.157" stroke="#263238" stroke-linecap="round" stroke-linejoin="round"/>
<path d="M197.519 140.834L191.089 137.354L188.139 136.822" stroke="#263238" stroke-linecap="round" stroke-linejoin="round"/>
<path d="M257.233 125.762C257.233 125.762 253.871 122.206 252.982 122.271C252.093 122.336 245.565 121.999 245.012 123.518C244.459 125.036 245.338 124.374 246.238 124.895C247.992 125.402 249.788 125.747 251.605 125.925C251.605 125.925 247.756 126.239 246.596 126.933C245.435 127.627 240.523 132.149 240.545 133.027C240.567 133.905 241.163 134.111 242.356 134.111C243.549 134.111 242.67 134.968 242.996 135.825C243.321 136.681 245.674 136.486 245.674 136.486C245.674 136.486 245.468 139.457 247.246 139.316C249.024 139.175 252.212 136.844 252.212 136.844C252.212 136.844 258.794 139.251 261.158 139.013C262.712 138.94 264.257 139.293 265.626 140.032C263.63 134.847 260.794 130.026 257.233 125.762Z" fill="white" stroke="#263238" stroke-linecap="round" stroke-linejoin="round"/>
<path d="M242.356 134.057L248.146 129.46L252.874 128.777" stroke="#263238" stroke-linecap="round" stroke-linejoin="round"/>
<path d="M245.674 136.443L252.104 132.973L255.053 132.431" stroke="#263238" stroke-linecap="round" stroke-linejoin="round"/>
<path d="M261.104 131.162C261.104 131.162 272.262 129.883 276.089 132.756C279.917 135.63 279.277 142.949 279.277 142.949" stroke="#263238" stroke-linecap="round" stroke-linejoin="round"/>
<path d="M172.959 367.113C172.959 367.113 174.152 364.738 177.958 365.215C181.764 365.692 184.149 370.214 181.525 371.634C178.901 373.055 172.959 367.113 172.959 367.113Z" fill="#92E3A9" stroke="#263238" stroke-linecap="round" stroke-linejoin="round"/>
<path d="M178.586 256.684C178.586 256.684 187.543 258.484 191.848 261.347C196.153 264.209 196.857 264.925 197.931 270.661C199.004 276.397 195.068 291.795 195.068 299.678C195.068 307.561 189.332 355.564 189.332 359.522C189.332 363.48 193.279 371.699 192.921 374.562C192.769 376.62 193.012 378.689 193.637 380.656C193.637 380.656 196.142 382.445 192.921 382.824C189.701 383.204 189.332 383.54 186.47 382.109C183.607 380.677 182.132 373.51 179.66 371.363C177.188 369.216 175.724 366.711 175.724 364.911C175.724 363.111 181.449 356.323 181.449 356.323C181.449 356.323 180.733 346.293 180.365 337.695C179.996 329.096 176.027 310.109 176.027 301.912C176.027 293.714 181.449 274.326 181.449 274.326C181.449 274.326 167.537 276.029 162.115 272.45C156.694 268.872 162.831 253.106 178.586 256.684Z" fill="white" stroke="#263238" stroke-linecap="round" stroke-linejoin="round"/>
<path d="M179.66 371.32C179.66 371.32 173.154 365.735 172.959 367.156C172.763 368.576 172.72 379.778 173.197 380.959C173.674 382.141 186.524 383.345 193.192 384.538C199.861 385.731 197.237 381.437 195.805 380.482C194.374 379.528 179.66 371.32 179.66 371.32Z" fill="#92E3A9" stroke="#263238" stroke-linecap="round" stroke-linejoin="round"/>
<path opacity="0.2" d="M179.66 371.32C179.66 371.32 173.154 365.735 172.959 367.156C172.763 368.576 172.72 379.778 173.197 380.959C173.674 382.141 186.524 383.345 193.192 384.538C199.861 385.731 197.237 381.437 195.805 380.482C194.374 379.528 179.66 371.32 179.66 371.32Z" fill="black"/>
<path d="M181.525 377.631C182.827 376.07 184.351 374.707 186.046 373.586C188.061 372.155 190.321 371.108 192.715 370.496L195.805 376.438C193.675 376.941 191.603 377.668 189.625 378.606C188.124 379.516 186.761 380.637 185.58 381.935C185.58 381.935 182.002 379.539 181.525 377.631Z" fill="#263238" stroke="#263238" stroke-linecap="round" stroke-linejoin="round"/>
<path d="M187.955 370.973C187.654 371.011 187.365 371.109 187.103 371.263C186.842 371.417 186.615 371.623 186.437 371.867C186.258 372.112 186.131 372.391 186.064 372.686C185.997 372.982 185.991 373.288 186.047 373.586C186.285 375.972 186.524 383.584 187.478 383.822C188.432 384.061 200.327 385.991 204.61 386.197C208.893 386.403 213.654 386.435 213.654 384.299C213.654 382.163 212.938 381.209 211.995 381.209C211.051 381.209 208.893 380.493 206.042 378.834C203.19 377.175 196.283 370.745 194.114 370.507C191.945 370.268 189.148 368.826 187.955 370.973Z" fill="#92E3A9" stroke="#263238" stroke-linecap="round" stroke-linejoin="round"/>
<path opacity="0.2" d="M187.955 370.973C187.654 371.011 187.365 371.109 187.103 371.263C186.842 371.417 186.615 371.623 186.437 371.867C186.258 372.112 186.131 372.391 186.064 372.686C185.997 372.982 185.991 373.288 186.047 373.586C186.285 375.972 186.524 383.584 187.478 383.822C188.432 384.061 200.327 385.991 204.61 386.197C208.893 386.403 213.654 386.435 213.654 384.299C213.654 382.163 212.938 381.209 211.995 381.209C211.051 381.209 208.893 380.493 206.042 378.834C203.19 377.175 196.283 370.745 194.114 370.507C191.945 370.268 189.148 368.826 187.955 370.973Z" fill="black"/>
<path d="M88.1749 381.209C88.1749 380.137 87.8569 379.088 87.2612 378.197C86.6655 377.305 85.8187 376.61 84.828 376.2C83.8374 375.79 82.7472 375.682 81.6955 375.891C80.6438 376.101 79.6778 376.617 78.9196 377.375C78.1613 378.133 77.645 379.099 77.4358 380.151C77.2266 381.203 77.334 382.293 77.7443 383.284C78.1547 384.274 78.8496 385.121 79.7412 385.717C80.6327 386.313 81.681 386.63 82.7533 386.63C84.1912 386.63 85.5702 386.059 86.5869 385.043C87.6037 384.026 88.1749 382.647 88.1749 381.209Z" fill="#263238" stroke="#263238" stroke-linecap="round" stroke-linejoin="round"/>
<path d="M82.7532 383.909C84.2503 383.909 85.464 382.695 85.464 381.198C85.464 379.701 84.2503 378.487 82.7532 378.487C81.256 378.487 80.0424 379.701 80.0424 381.198C80.0424 382.695 81.256 383.909 82.7532 383.909Z" fill="white" stroke="#263238" stroke-linecap="round" stroke-linejoin="round"/>
<path d="M146.273 381.209C146.273 380.137 145.955 379.088 145.36 378.197C144.764 377.305 143.917 376.61 142.926 376.2C141.936 375.79 140.846 375.682 139.794 375.891C138.742 376.101 137.776 376.617 137.018 377.375C136.26 378.133 135.743 379.099 135.534 380.151C135.325 381.203 135.432 382.293 135.843 383.284C136.253 384.274 136.948 385.121 137.84 385.717C138.731 386.313 139.779 386.63 140.852 386.63C142.29 386.63 143.669 386.059 144.685 385.043C145.702 384.026 146.273 382.647 146.273 381.209Z" fill="#263238" stroke="#263238" stroke-linecap="round" stroke-linejoin="round"/>
<path d="M143.563 381.209C143.563 380.673 143.404 380.149 143.106 379.703C142.808 379.257 142.384 378.91 141.889 378.704C141.394 378.499 140.849 378.445 140.323 378.55C139.797 378.655 139.314 378.913 138.935 379.292C138.556 379.671 138.298 380.154 138.193 380.68C138.088 381.206 138.142 381.751 138.347 382.246C138.552 382.742 138.9 383.165 139.346 383.463C139.791 383.761 140.316 383.92 140.852 383.92C141.571 383.92 142.26 383.634 142.769 383.126C143.277 382.617 143.563 381.928 143.563 381.209Z" fill="white" stroke="#263238" stroke-linecap="round" stroke-linejoin="round"/>
<path d="M165.26 381.209C165.26 380.137 164.942 379.088 164.346 378.197C163.75 377.305 162.904 376.61 161.913 376.2C160.922 375.79 159.832 375.682 158.781 375.891C157.729 376.101 156.763 376.617 156.005 377.375C155.246 378.133 154.73 379.099 154.521 380.151C154.312 381.203 154.419 382.293 154.829 383.284C155.24 384.274 155.935 385.121 156.826 385.717C157.718 386.313 158.766 386.63 159.838 386.63C161.276 386.63 162.655 386.059 163.672 385.043C164.689 384.026 165.26 382.647 165.26 381.209Z" fill="#263238" stroke="#263238" stroke-linecap="round" stroke-linejoin="round"/>
<path d="M162.549 381.209C162.551 380.67 162.393 380.142 162.095 379.693C161.797 379.243 161.372 378.893 160.874 378.686C160.376 378.478 159.828 378.423 159.299 378.528C158.77 378.633 158.284 378.892 157.903 379.273C157.522 379.655 157.262 380.141 157.157 380.67C157.053 381.199 157.108 381.747 157.315 382.245C157.522 382.742 157.873 383.167 158.322 383.465C158.771 383.764 159.299 383.922 159.838 383.92C160.557 383.92 161.247 383.634 161.755 383.126C162.263 382.617 162.549 381.928 162.549 381.209Z" fill="white" stroke="#263238" stroke-linecap="round" stroke-linejoin="round"/>
<path d="M132.437 288.13H120.965V374.996H132.437V288.13Z" fill="#263238" stroke="#263238" stroke-linecap="round" stroke-linejoin="round"/>
<path d="M135.506 333.52H117.918V374.996H135.506V333.52Z" fill="#263238" stroke="#263238" stroke-linecap="round" stroke-linejoin="round"/>
<path d="M81.6363 373.358H162.668C163.819 373.358 164.922 373.815 165.735 374.629C166.549 375.442 167.006 376.545 167.006 377.696V378.27H77.299V377.696C77.299 376.545 77.756 375.442 78.5694 374.629C79.3828 373.815 80.486 373.358 81.6363 373.358Z" fill="#263238" stroke="#263238" stroke-linecap="round" stroke-linejoin="round"/>
<path d="M114.99 254.537H100.243V278.306H114.99V254.537Z" fill="#263238" stroke="#263238" stroke-linecap="round" stroke-linejoin="round"/>
<path d="M174.477 275.02H78.9254C74.5358 275.02 70.9773 278.579 70.9773 282.968V285.105C70.9773 289.494 74.5358 293.053 78.9254 293.053H174.477C178.866 293.053 182.425 289.494 182.425 285.105V282.968C182.425 278.579 178.866 275.02 174.477 275.02Z" fill="#92E3A9" stroke="#263238" stroke-linecap="round" stroke-linejoin="round"/>
<path opacity="0.1" d="M174.477 275.02H78.9254C74.5358 275.02 70.9773 278.579 70.9773 282.968V285.105C70.9773 289.494 74.5358 293.053 78.9254 293.053H174.477C178.866 293.053 182.425 289.494 182.425 285.105V282.968C182.425 278.579 178.866 275.02 174.477 275.02Z" fill="black"/>
<path d="M182.425 284.031C182.425 281.641 181.475 279.349 179.786 277.659C178.096 275.97 175.804 275.02 173.414 275.02H124.25C123.04 274.978 121.834 275.18 120.703 275.615C119.573 276.049 118.541 276.706 117.67 277.548C116.799 278.389 116.106 279.397 115.633 280.512C115.16 281.627 114.916 282.825 114.916 284.036C114.916 285.248 115.16 286.446 115.633 287.561C116.106 288.676 116.799 289.684 117.67 290.525C118.541 291.367 119.573 292.024 120.703 292.458C121.834 292.893 123.04 293.095 124.25 293.053H173.414C175.805 293.05 178.097 292.098 179.786 290.406C181.476 288.715 182.425 286.422 182.425 284.031Z" fill="#92E3A9" stroke="#263238" stroke-miterlimit="10"/>
<path opacity="0.1" d="M182.425 284.313C182.425 283.13 182.192 281.958 181.739 280.865C181.286 279.771 180.622 278.778 179.786 277.941C178.949 277.105 177.956 276.441 176.862 275.988C175.769 275.535 174.597 275.302 173.414 275.302H124.25C123.04 275.26 121.834 275.462 120.703 275.897C119.573 276.331 118.541 276.988 117.67 277.83C116.799 278.671 116.106 279.679 115.633 280.794C115.16 281.909 114.916 283.107 114.916 284.318C114.916 285.529 115.16 286.728 115.633 287.843C116.106 288.958 116.799 289.966 117.67 290.807C118.541 291.649 119.573 292.306 120.703 292.74C121.834 293.174 123.04 293.377 124.25 293.335H173.414C174.598 293.335 175.771 293.101 176.865 292.648C177.959 292.194 178.953 291.529 179.789 290.692C180.626 289.854 181.29 288.859 181.742 287.765C182.194 286.67 182.426 285.497 182.425 284.313Z" fill="black"/>
<path d="M136.666 254.548H79.1966C77.8529 254.549 76.5228 254.28 75.2847 253.758C74.0466 253.236 72.9255 252.472 71.9876 251.509C71.0497 250.547 70.3141 249.407 69.8239 248.156C69.3338 246.905 69.0992 245.568 69.134 244.225L70.5545 188.198C70.6168 185.572 71.7048 183.074 73.5855 181.24C75.4661 179.406 77.9901 178.381 80.617 178.385H128.035C130.441 178.38 132.768 179.239 134.595 180.805C136.421 182.371 137.626 184.54 137.989 186.918L146.609 242.989C146.825 244.42 146.729 245.881 146.328 247.272C145.927 248.663 145.231 249.95 144.287 251.048C143.343 252.145 142.174 253.026 140.859 253.63C139.543 254.234 138.113 254.547 136.666 254.548Z" fill="#92E3A9" stroke="#263238" stroke-linecap="round" stroke-linejoin="round"/>
<path opacity="0.1" d="M136.666 254.548H79.1966C77.8529 254.549 76.5228 254.28 75.2847 253.758C74.0466 253.236 72.9255 252.472 71.9876 251.509C71.0497 250.547 70.3141 249.407 69.8239 248.156C69.3338 246.905 69.0992 245.568 69.134 244.225L70.5545 188.198C70.6168 185.572 71.7048 183.074 73.5855 181.24C75.4661 179.406 77.9901 178.381 80.617 178.385H128.035C130.441 178.38 132.768 179.239 134.595 180.805C136.421 182.371 137.626 184.54 137.989 186.918L146.609 242.989C146.825 244.42 146.729 245.881 146.328 247.272C145.927 248.663 145.231 249.95 144.287 251.048C143.343 252.145 142.174 253.026 140.859 253.63C139.543 254.234 138.113 254.547 136.666 254.548Z" fill="black"/>
<path d="M117.896 290.179L92.6965 306.769" stroke="#263238" stroke-linecap="round" stroke-linejoin="round"/>
<path d="M91.7423 304.221L87.405 307.138C87.0653 307.37 86.7811 307.674 86.5728 308.028C86.3644 308.382 86.237 308.778 86.1997 309.188C86.1624 309.597 86.2161 310.01 86.357 310.396C86.4979 310.782 86.7224 311.132 87.0146 311.421L87.3833 311.768C87.8705 312.248 88.518 312.529 89.2008 312.559C89.8837 312.589 90.5534 312.366 91.0808 311.931L95.0495 308.678C95.3441 308.434 95.5851 308.132 95.7575 307.791C95.9299 307.45 96.0299 307.076 96.0513 306.695C96.0727 306.313 96.015 305.931 95.8818 305.572C95.7485 305.214 95.5427 304.887 95.2772 304.612C94.828 304.141 94.2274 303.844 93.5808 303.773C92.9343 303.701 92.2833 303.86 91.7423 304.221Z" fill="#263238" stroke="#263238" stroke-linecap="round" stroke-linejoin="round"/>
<path d="M121.833 373.358H146.696C147.847 373.358 148.95 373.815 149.763 374.629C150.577 375.442 151.034 376.545 151.034 377.696V378.27H121.833V373.358Z" fill="#263238" stroke="#263238" stroke-linecap="round" stroke-linejoin="round"/>
<path d="M141.741 225.672C146.645 225.672 150.621 223.41 150.621 220.619C150.621 217.829 146.645 215.566 141.741 215.566C136.836 215.566 132.86 217.829 132.86 220.619C132.86 223.41 136.836 225.672 141.741 225.672Z" fill="white" stroke="#263238" stroke-linecap="round" stroke-linejoin="round"/>
<path d="M166.453 262.063C166.453 262.063 180.777 262.778 184.008 270.303C184.674 272.88 185.038 275.526 185.092 278.187C185.092 282.123 198.343 358.069 198.701 359.511C199.059 360.954 206.942 372.046 208.015 374.551C209.089 377.056 210.184 379.214 210.184 379.214C210.184 379.214 213.437 380.645 213.057 381.718C212.678 382.792 205.174 383.15 201.954 383.15C198.733 383.15 195.144 375.278 192.997 374.551C190.85 373.825 188.335 371.298 188.335 369.899C188.335 368.5 189.419 358.08 189.419 358.08C188.045 349.579 185.642 341.277 182.262 333.357C177.47 322.438 171.506 306.488 170.79 298.973C170.074 291.459 170.074 284.28 170.074 284.28L161.031 282.838C161.031 282.838 159.947 264.209 166.453 262.063Z" fill="white" stroke="#263238" stroke-linecap="round" stroke-linejoin="round"/>
<path d="M195.567 378.108C195.567 378.108 198.43 366.451 205.803 370.973L208.893 376.199C208.893 376.199 201.997 376.199 199.85 382.868C198.801 382.485 197.863 381.851 197.116 381.021C196.369 380.191 195.838 379.191 195.567 378.108Z" fill="#263238" stroke="#263238" stroke-linecap="round" stroke-linejoin="round"/>
<path d="M136.807 240.311L136.46 240.365C133.207 227.115 128.816 213.571 128.816 213.571C128.816 213.571 107.27 219.264 94.8435 215.404C94.8435 215.404 88.5219 246.535 88.5219 254.667C88.5219 261.173 87.1773 267.788 92.1002 271.605C92.5763 272.305 93.1882 272.904 93.8997 273.364C94.6112 273.824 95.4078 274.136 96.2423 274.283C109.677 276.809 132.828 275.931 136.688 276.701C140.548 277.471 161.031 282.838 161.031 282.838C161.031 282.838 162.256 271.54 165.726 264.21C169.196 256.879 185.038 258.126 185.038 258.126L136.807 240.311Z" fill="#263238" stroke="#263238" stroke-linecap="round" stroke-linejoin="round"/>
<path d="M131.83 153.499C131.83 153.499 128.859 149.769 125.649 153.879C122.44 157.988 124.988 172.258 126.571 177.962C128.154 183.665 154.894 207.326 157.409 209.082C159.925 210.839 192.704 218.245 195.567 216.889C198.43 215.534 199.254 208.67 197.627 204.962C196.001 201.253 165.368 193.381 165.368 193.381L131.83 153.499Z" fill="white"/>
<mask id="mask5_33_485" style="mask-type:luminance" maskUnits="userSpaceOnUse" x="124" y="151" width="75" height="67">
<path d="M131.83 153.499C131.83 153.499 128.859 149.769 125.649 153.879C122.44 157.988 124.988 172.258 126.571 177.962C128.154 183.665 154.894 207.326 157.409 209.082C159.925 210.839 192.704 218.245 195.567 216.889C198.43 215.534 199.254 208.67 197.627 204.962C196.001 201.253 165.368 193.381 165.368 193.381L131.83 153.499Z" fill="white"/>
</mask>
<g mask="url(#mask5_33_485)">
<g style="mix-blend-mode:multiply" opacity="0.5">
<path d="M157.409 209.104C159.925 210.85 192.704 218.266 195.567 216.911C197.215 216.13 198.18 213.506 198.397 210.719C193.333 208.681 187.326 207.304 184.539 207.466C180.495 207.694 183.206 211.468 176.721 210.405C170.237 209.342 162.842 206.068 156.119 202.229C149.396 198.391 137.327 187.049 137.327 187.049L146.794 188.133L136.005 184.804L145.384 181.28L137.327 180.803C137.844 179.527 138.084 178.156 138.032 176.78C138.032 173.993 132.719 163.649 132.719 163.649L127.081 179.144C131.017 186.214 155.035 207.445 157.409 209.104Z" fill="#92E3A9"/>
</g>
</g>
<path d="M131.83 153.499C131.83 153.499 128.859 149.769 125.649 153.879C122.44 157.988 124.988 172.258 126.571 177.962C128.154 183.665 154.894 207.326 157.409 209.082C159.925 210.839 192.704 218.245 195.567 216.889C198.43 215.534 199.254 208.67 197.627 204.962C196.001 201.253 165.368 193.381 165.368 193.381L131.83 153.499Z" stroke="#263238" stroke-linecap="round" stroke-linejoin="round"/>
<path d="M142.359 183.459L134.996 186.311L147.379 190.432" stroke="#263238" stroke-width="0.5" stroke-linecap="round" stroke-linejoin="round"/>
<path d="M195.643 204.929C194.696 205.123 193.831 205.599 193.159 206.293C192.488 206.988 192.042 207.869 191.88 208.822C191.241 212.216 194.58 215.111 194.58 215.111C194.58 215.111 201.618 217.529 203.721 211.858C205.825 206.187 199.048 204.712 195.643 204.929Z" fill="white"/>
<mask id="mask6_33_485" style="mask-type:luminance" maskUnits="userSpaceOnUse" x="191" y="204" width="14" height="12">
<path d="M195.643 204.929C194.696 205.123 193.831 205.599 193.159 206.293C192.488 206.988 192.042 207.869 191.88 208.822C191.241 212.216 194.58 215.111 194.58 215.111C194.58 215.111 201.618 217.529 203.721 211.858C205.825 206.187 199.048 204.712 195.643 204.929Z" fill="white"/>
</mask>
<g mask="url(#mask6_33_485)">
<g style="mix-blend-mode:multiply" opacity="0.5">
<path d="M194.58 215.111C194.58 215.111 200.587 217.16 203.157 213.029C199.627 211.064 195.854 209.573 191.934 208.594C191.911 208.669 191.893 208.745 191.88 208.822C191.241 212.216 194.58 215.111 194.58 215.111Z" fill="#92E3A9"/>
</g>
</g>
<path d="M195.643 204.929C194.696 205.123 193.831 205.599 193.159 206.293C192.488 206.988 192.042 207.869 191.88 208.822C191.241 212.216 194.58 215.111 194.58 215.111C194.58 215.111 201.618 217.529 203.721 211.858C205.825 206.187 199.048 204.712 195.643 204.929Z" stroke="#263238" stroke-linecap="round" stroke-linejoin="round"/>
<path d="M216.43 212.769C218.395 213.084 220.206 214.028 221.591 215.458C223.64 217.768 221.971 218.711 220.659 218.375C219.346 218.039 215.031 211.663 216.43 212.769Z" fill="white" stroke="#263238" stroke-linecap="round" stroke-linejoin="round"/>
<path d="M215.063 212.346C216.968 212.931 218.63 214.118 219.802 215.729C221.515 218.288 219.726 218.982 218.479 218.483C217.232 217.984 213.827 211.056 215.063 212.346Z" fill="white" stroke="#263238" stroke-linecap="round" stroke-linejoin="round"/>
<path d="M202.788 207.293C202.788 207.293 199.535 208.486 199.178 210.546C199.119 211.189 199.194 211.837 199.4 212.45C199.605 213.062 199.936 213.625 200.37 214.103C200.37 214.103 203.623 216.705 204.86 216.976C206.096 217.247 208.872 218.83 209.197 217.323C209.522 215.816 206.226 214.482 206.226 214.482C206.226 214.482 212.526 214.862 212.732 216.13C212.938 217.399 215.215 218.711 217.232 218.744C219.249 218.776 216.809 214.699 216.321 213.68C215.833 212.66 206.822 207.369 202.788 207.293Z" fill="white" stroke="#263238" stroke-linecap="round" stroke-linejoin="round"/>
<path d="M99.5279 143.382C99.5279 143.382 79.7063 154.909 78.1557 155.668C76.6051 156.427 75.0654 168.355 75.0654 169.482C75.0654 170.61 94.8869 215.404 94.8869 215.404C94.8869 215.404 99.7664 219.535 114.047 219.535C128.328 219.535 129.434 217.366 129.434 217.366L130.572 198.467C130.572 198.467 135.452 185.693 135.831 183.438C136.211 181.182 131.83 153.499 131.83 153.499L111.553 139.978C111.553 139.978 103.29 135.12 99.5279 143.382Z" fill="white"/>
<mask id="mask7_33_485" style="mask-type:luminance" maskUnits="userSpaceOnUse" x="75" y="138" width="61" height="82">
<path d="M99.5279 143.382C99.5279 143.382 79.7063 154.909 78.1557 155.668C76.6051 156.427 75.0654 168.355 75.0654 169.482C75.0654 170.61 94.8869 215.404 94.8869 215.404C94.8869 215.404 99.7664 219.535 114.047 219.535C128.328 219.535 129.434 217.366 129.434 217.366L130.572 198.467C130.572 198.467 135.452 185.693 135.831 183.438C136.211 181.182 131.83 153.499 131.83 153.499L111.553 139.978C111.553 139.978 103.29 135.12 99.5279 143.382Z" fill="white"/>
</mask>
<g mask="url(#mask7_33_485)">
<g style="mix-blend-mode:multiply" opacity="0.5">
<path d="M80.1726 163.865C81.7232 161.382 95.993 152.079 95.993 152.079L101.263 148.978L108.018 138.731C105.307 138.232 101.686 138.644 99.5279 143.382C99.5279 143.382 79.6629 154.909 78.1557 155.657C76.6485 156.405 75.0654 168.344 75.0654 169.471C75.0654 169.721 75.9979 172.02 77.4509 175.479C78.0147 170.35 79.0882 165.6 80.1726 163.865Z" fill="#92E3A9"/>
</g>
</g>
<path d="M99.5279 143.382C99.5279 143.382 79.7063 154.909 78.1557 155.668C76.6051 156.427 75.0654 168.355 75.0654 169.482C75.0654 170.61 94.8869 215.404 94.8869 215.404C94.8869 215.404 99.7664 219.535 114.047 219.535C128.328 219.535 129.434 217.366 129.434 217.366L130.572 198.467C130.572 198.467 135.452 185.693 135.831 183.438C136.211 181.182 131.83 153.499 131.83 153.499L111.553 139.978C111.553 139.978 103.29 135.12 99.5279 143.382Z" stroke="#263238" stroke-linecap="round" stroke-linejoin="round"/>
<path d="M106.175 161.263L111.954 167.498L110.751 194.01L119.208 196.244L120.097 184.663L123.21 196.688L129.444 190.453L115.966 167.053L117.744 159.929L110.176 151.472L105.286 163.052" fill="#263238"/>
<path d="M106.175 161.263L111.954 167.498L110.751 194.01L119.208 196.244L120.097 184.663L123.21 196.688L129.444 190.453L115.966 167.053L117.744 159.929L110.176 151.472L105.286 163.052" stroke="#263238" stroke-linecap="round" stroke-linejoin="round"/>
<path d="M95.6566 143.448C95.6566 143.448 96.8928 151.699 98.5409 155.375C100.189 159.051 103.908 165.286 103.908 165.286L111.748 157.435L119.599 162.857C119.599 162.857 118.775 149.238 115.879 143.046C112.984 136.855 98.953 130.652 95.6566 143.448Z" fill="white" stroke="#263238" stroke-linecap="round" stroke-linejoin="round"/>
<g style="mix-blend-mode:multiply" opacity="0.5">
<path d="M101.263 148.978L109.102 137.05C107.671 136.423 106.14 136.056 104.581 135.966C103.236 136.237 101.718 136.573 100.113 136.931C98.1506 138.015 96.5241 140.054 95.6566 143.437C95.6566 143.437 96.2747 147.601 97.2289 151.341L101.263 148.978Z" fill="#92E3A9"/>
</g>
<path d="M115.055 140.964C113.994 143.302 113.433 145.836 113.407 148.403C113.407 152.523 114.231 157.078 114.231 159.138V165.329C114.231 165.329 109.276 159.138 105.557 154.594C101.837 150.051 98.9531 145.92 99.3652 142.211C99.7772 138.503 103.496 124.038 103.496 124.038C105.461 124.02 107.392 124.552 109.07 125.573C110.748 126.595 112.108 128.065 112.995 129.818C116.292 136.009 115.055 140.964 115.055 140.964Z" fill="white" stroke="#263238" stroke-linecap="round" stroke-linejoin="round"/>
<g style="mix-blend-mode:multiply" opacity="0.5">
<path d="M102.195 133.786L100.959 134.383C100.2 137.636 99.5278 140.748 99.3652 142.211C98.964 145.79 101.642 149.802 105.166 154.139L105.611 145.605L115.055 140.997L107.465 133.504L102.195 133.786Z" fill="#92E3A9"/>
</g>
<path d="M123.079 136.53C123.079 136.53 120.347 141.593 123.296 141.799C126.246 142.005 125.606 139.479 126.029 138.644C126.452 137.809 128.349 139.728 127.297 143.697C126.246 147.666 120.976 150.441 117.81 147.275C114.643 144.109 115.5 140.769 116.552 138.221C117.604 135.673 121.843 134.426 123.079 136.53Z" fill="#263238" stroke="#263238" stroke-linecap="round" stroke-linejoin="round"/>
<path d="M117.159 91.7683C116.237 91.6382 115.272 91.5406 114.275 91.4864C110.642 91.3021 106.684 91.5406 103.854 93.8069C97.9772 98.5129 98.9639 107.968 99.3868 114.55C99.8639 122.021 99.7663 132.919 105.372 138.329C114.839 147.46 129.64 137.69 129.64 126.868C129.64 122.292 129.813 115.32 130.117 113.759C130.512 111.83 130.784 109.878 130.93 107.914C131.581 97.949 125.931 93.0153 117.159 91.7683Z" fill="white" stroke="#263238" stroke-linecap="round" stroke-linejoin="round"/>
<g style="mix-blend-mode:multiply" opacity="0.5">
<path d="M120.65 140.281C118.002 140.244 115.358 140.041 112.735 139.674C108.712 139.056 103.128 132.539 105.914 123.55C108.701 114.561 108.712 109.898 108.712 109.898L99.2241 103.967C99.0065 107.494 99.0645 111.032 99.3976 114.55C99.8747 122.021 99.7771 132.919 105.383 138.329C109.981 142.775 115.836 142.732 120.65 140.281Z" fill="#92E3A9"/>
</g>
<path d="M115.272 120.612C115.865 120.612 116.346 119.786 116.346 118.768C116.346 117.75 115.865 116.925 115.272 116.925C114.679 116.925 114.199 117.75 114.199 118.768C114.199 119.786 114.679 120.612 115.272 120.612Z" fill="#263238"/>
<path d="M125.866 119.224C125.801 120.243 125.259 121.034 124.673 120.991C124.088 120.948 123.654 120.102 123.719 119.083C123.784 118.063 124.315 117.272 124.912 117.315C125.508 117.359 125.931 118.204 125.866 119.224Z" fill="#263238"/>
<path d="M111.943 114.355C111.943 114.355 114.112 109.779 117.593 111.937Z" fill="white"/>
<path d="M111.943 114.355C111.943 114.355 114.112 109.779 117.593 111.937" stroke="#263238" stroke-linecap="round" stroke-linejoin="round"/>
<path d="M123.242 112.739C123.242 112.739 125.812 109.79 127.276 114.626Z" fill="white"/>
<path d="M123.242 112.739C123.242 112.739 125.812 109.79 127.276 114.626" stroke="#263238" stroke-linecap="round" stroke-linejoin="round"/>
<path d="M121.572 122.433C121.572 122.618 121.572 122.802 121.572 122.965C121.843 124.851 123.188 126.218 122.657 126.998C122.125 127.779 119.404 128.083 119.404 128.083" fill="white"/>
<path d="M121.572 122.433C121.572 122.618 121.572 122.802 121.572 122.965C121.843 124.851 123.188 126.218 122.657 126.998C122.125 127.779 119.404 128.083 119.404 128.083" stroke="#263238" stroke-linecap="round" stroke-linejoin="round"/>
<path d="M118.395 132.387C118.395 132.387 113.657 133.851 111.889 130.024Z" fill="white"/>
<path d="M118.395 132.387C118.395 132.387 113.657 133.851 111.889 130.024" stroke="#263238" stroke-linecap="round" stroke-linejoin="round"/>
<path d="M114.351 123.279C117.429 123.279 119.924 120.784 119.924 117.706C119.924 114.627 117.429 112.132 114.351 112.132C111.272 112.132 108.777 114.627 108.777 117.706C108.777 120.784 111.272 123.279 114.351 123.279Z" stroke="#263238" stroke-width="0.5" stroke-linecap="round" stroke-linejoin="round"/>
<path d="M126.961 123.279C129.722 123.279 131.96 120.784 131.96 117.706C131.96 114.627 129.722 112.132 126.961 112.132C124.201 112.132 121.963 114.627 121.963 117.706C121.963 120.784 124.201 123.279 126.961 123.279Z" stroke="#263238" stroke-width="0.5" stroke-linecap="round" stroke-linejoin="round"/>
<path d="M108.777 117.706L100.818 118.042" stroke="#263238" stroke-width="0.5" stroke-linecap="round" stroke-linejoin="round"/>
<path d="M131.96 117.706H129.922" stroke="#263238" stroke-width="0.5" stroke-linecap="round" stroke-linejoin="round"/>
<path d="M119.913 116.003H122.223" stroke="#263238" stroke-width="0.5" stroke-linecap="round" stroke-linejoin="round"/>
<path d="M126.994 85.1864C122.833 84.4598 118.626 84.025 114.405 83.8852C114.405 83.8852 107.021 80.4045 97.0556 84.3189C82.7966 89.8924 83.1111 108.933 86.646 121.067C87.7303 124.732 90.2785 130.295 87.9364 133.97C86.4617 136.291 82.2436 135.055 82.8834 131.867C83.5231 128.679 84.5641 129.763 85.4099 129.34C86.2557 128.917 84.987 128.495 83.0894 127.866C81.1918 127.237 79.5328 128.95 79.2943 133.125C78.6653 144.51 95.4399 152.046 101.837 142.092C104.44 137.755 102.13 130.219 101.003 124.743C100.644 122.847 100.402 120.932 100.276 119.007C102.3 118.813 104.178 117.864 105.535 116.35C106.54 114.973 107.398 113.493 108.094 111.937C108.853 111.937 109.645 111.991 110.512 112.078C119.187 112.945 121.811 98.1767 121.811 98.1767C121.811 98.1767 126.148 106.428 127.449 109.475L128.751 112.512C128.751 112.512 132.231 112.945 135.701 105.561C139.171 98.1767 135.246 86.5201 126.994 85.1864Z" fill="#263238" stroke="#263238" stroke-linecap="round" stroke-linejoin="round"/>
<path d="M121.312 94.7069C121.312 94.7069 131.982 98.3719 132.307 104.704C132.632 111.037 130.973 111.362 130.973 111.362" stroke="white" stroke-width="0.5" stroke-miterlimit="10" stroke-linecap="round"/>
<path d="M119.989 92.3756C119.989 92.3756 129.976 90.0442 133.315 96.7129" stroke="white" stroke-width="0.5" stroke-miterlimit="10" stroke-linecap="round"/>
<path d="M107.66 85.7069C107.66 85.7069 117.647 90.7057 119.317 95.3791C120.987 100.053 112.323 109.031 106.652 110.701C100.981 112.371 96.6652 110.365 92.664 113.368C88.6628 116.372 90.3327 124.689 90.3327 124.689" stroke="white" stroke-width="0.5" stroke-miterlimit="10" stroke-linecap="round"/>
<path d="M87.2965 115.363C87.2965 115.363 84.629 109.031 90.3001 105.702C95.9711 102.373 100.959 105.702 107.292 101.701C113.624 97.6996 114.622 92.7117 114.622 92.7117" stroke="white" stroke-width="0.5" stroke-miterlimit="10" stroke-linecap="round"/>
<path d="M101.968 121.11C101.968 121.11 98.4651 112.598 94.9519 115.602C91.4387 118.606 97.4567 126.619 101.458 125.621" fill="white"/>
<path d="M101.968 121.11C101.968 121.11 98.4651 112.598 94.9519 115.602C91.4387 118.606 97.4567 126.619 101.458 125.621" stroke="#263238" stroke-linecap="round" stroke-linejoin="round"/>
<g opacity="0.37">
<path d="M101.968 121.11C101.968 121.11 98.4651 112.598 94.9519 115.602C91.4387 118.606 97.4567 126.619 101.458 125.621" fill="#92E3A9"/>
<path d="M101.968 121.11C101.968 121.11 98.4651 112.598 94.9519 115.602C91.4387 118.606 97.4567 126.619 101.458 125.621" stroke="#263238" stroke-linecap="round" stroke-linejoin="round"/>
</g>
<path d="M80.5736 156.525C80.5736 156.525 78.8712 155.245 75.0868 158.097C71.3025 160.949 67.7785 173.917 70.1423 179.415C72.5061 184.912 78.8169 213.495 81.7555 215.057C84.694 216.618 116.291 216.488 120.022 215.61C123.752 214.731 126.354 209.852 125.725 205.634C125.096 201.416 120.932 200.321 119.707 200.288C118.482 200.256 93.3145 198.824 93.3145 198.824L85.4964 165.796" fill="white"/>
<mask id="mask8_33_485" style="mask-type:luminance" maskUnits="userSpaceOnUse" x="69" y="156" width="57" height="61">
<path d="M80.5736 156.525C80.5736 156.525 78.8712 155.245 75.0868 158.097C71.3025 160.949 67.7785 173.917 70.1423 179.415C72.5061 184.912 78.8169 213.495 81.7555 215.057C84.694 216.618 116.291 216.488 120.022 215.61C123.752 214.731 126.354 209.852 125.725 205.634C125.096 201.416 120.932 200.321 119.707 200.288C118.482 200.256 93.3145 198.824 93.3145 198.824L85.4964 165.796" fill="white"/>
</mask>
<g mask="url(#mask8_33_485)">
<g style="mix-blend-mode:multiply" opacity="0.5">
<path d="M121.019 208.529C119.219 206.306 90.571 210.177 87.5132 208.529C84.4554 206.881 82.9807 203.747 85.2144 201.633C87.4482 199.518 80.9422 199.041 80.9964 197.176C81.0506 195.311 84.7807 194.801 84.5422 192.308C84.3036 189.814 76.247 189.293 76.4422 182.158C76.6374 175.023 78.4265 166.392 80.0422 163.952C80.9369 162.923 81.9653 162.019 83.1 161.263L80.5735 156.514C80.5735 156.514 78.8711 155.234 75.0868 158.086C71.3025 160.938 67.7784 173.917 70.1422 179.415C72.5061 184.912 78.8169 213.495 81.7554 215.057C84.694 216.618 116.291 216.488 120.021 215.61C121.227 215.224 122.323 214.555 123.217 213.659C124.111 212.763 124.778 211.666 125.161 210.459C123.155 209.885 121.55 209.18 121.019 208.529Z" fill="#92E3A9"/>
</g>
</g>
<path d="M80.5736 156.525C80.5736 156.525 78.8712 155.245 75.0868 158.097C71.3025 160.949 67.7785 173.917 70.1423 179.415C72.5061 184.912 78.8169 213.495 81.7555 215.057C84.694 216.618 116.291 216.488 120.022 215.61C123.752 214.731 126.354 209.852 125.725 205.634C125.096 201.416 120.932 200.321 119.707 200.288C118.482 200.256 93.3145 198.824 93.3145 198.824L85.4964 165.796" stroke="#263238" stroke-linecap="round" stroke-linejoin="round"/>
<path d="M83.74 204.918C85.605 199.432 93.3038 199.323 93.3038 199.323C90.2332 198.519 87.0228 198.404 83.9026 198.987" stroke="#263238" stroke-width="0.5" stroke-linecap="round" stroke-linejoin="round"/>
<path d="M124.359 201.654C123.219 202.142 122.247 202.952 121.561 203.984C120.876 205.017 120.506 206.227 120.499 207.466C120.369 211.912 123.318 212.736 124.044 213.246C124.771 213.756 129.152 216.109 130.919 214.666C132.687 213.224 134.768 209.342 133.088 206.089C131.407 202.836 126.083 201.698 124.359 201.654Z" fill="white"/>
<mask id="mask9_33_485" style="mask-type:luminance" maskUnits="userSpaceOnUse" x="120" y="201" width="14" height="15">
<path d="M124.359 201.654C123.219 202.142 122.247 202.952 121.561 203.984C120.876 205.017 120.506 206.227 120.499 207.466C120.369 211.912 123.318 212.736 124.044 213.246C124.771 213.756 129.152 216.109 130.919 214.666C132.687 213.224 134.768 209.342 133.088 206.089C131.407 202.836 126.083 201.698 124.359 201.654Z" fill="white"/>
</mask>
<g mask="url(#mask9_33_485)">
<g style="mix-blend-mode:multiply" opacity="0.5">
<path d="M130.919 214.666C131.369 214.284 131.77 213.847 132.112 213.365L128.425 211.403C125.042 210.47 121.822 209.516 121.019 208.529C120.879 208.382 120.704 208.274 120.51 208.215C120.716 212.01 123.35 212.769 124.044 213.246C124.738 213.723 129.152 216.109 130.919 214.666Z" fill="#92E3A9"/>
</g>
</g>
<path d="M124.359 201.654C123.219 202.142 122.247 202.952 121.561 203.984C120.876 205.017 120.506 206.227 120.499 207.466C120.369 211.912 123.318 212.736 124.044 213.246C124.771 213.756 129.152 216.109 130.919 214.666C132.687 213.224 134.768 209.342 133.088 206.089C131.407 202.836 126.083 201.698 124.359 201.654Z" stroke="#263238" stroke-linecap="round" stroke-linejoin="round"/>
<path d="M130.464 205.634C130.464 205.634 127.775 206.664 127.406 208.692C127.037 210.719 127.167 211.815 127.634 211.945C128.1 212.075 129.65 212.78 129.65 212.78L134.432 215.263C134.432 215.263 138.228 219.6 139.475 219.947C140.722 220.294 139.648 219.481 139.475 218.537C138.932 217.186 138.229 215.905 137.382 214.721L143.042 219.73C143.042 219.73 144.907 220.403 144.473 218.982C144.04 217.562 141.144 214.645 141.144 214.645L146.49 219.492C146.49 219.492 147.574 219.99 147.574 219.362C147.635 219.046 147.613 218.721 147.511 218.417C147.408 218.113 147.228 217.84 146.989 217.627C146.382 217.139 142.738 212.964 142.738 212.964L147.813 216.076C147.813 216.076 148.897 217.518 149.656 217.54C150.415 217.562 149.982 217.074 149.407 215.371C148.832 213.669 144.972 211.175 143.595 210.199C142.218 209.223 134.693 205.753 130.464 205.634Z" fill="white" stroke="#263238" stroke-linecap="round" stroke-linejoin="round"/>
<path d="M373.072 204.333H330.718L338.341 179.61H380.695L373.072 204.333Z" fill="#263238" stroke="#263238" stroke-linecap="round" stroke-linejoin="round"/>
<path d="M369.743 206.664H327.4L335.023 181.93H377.366L369.743 206.664Z" fill="white" stroke="#263238" stroke-linecap="round" stroke-linejoin="round"/>
<path d="M308.89 196.873H378.678C380.403 196.873 382.058 197.558 383.278 198.778C384.498 199.998 385.184 201.653 385.184 203.379V221.574H308.89V196.873Z" fill="#263238" stroke="#263238" stroke-linecap="round" stroke-linejoin="round"/>
<path d="M372.692 196.873H296.366V221.606H372.692V196.873Z" fill="white" stroke="#263238" stroke-linecap="round" stroke-linejoin="round"/>
<path d="M355.517 214.97H294.545V218.234H355.517V214.97Z" fill="white" stroke="#263238" stroke-linecap="round" stroke-linejoin="round"/>
<path d="M355.516 211.706H307.556V214.97H355.516V211.706Z" fill="#263238" stroke="#263238" stroke-linecap="round" stroke-linejoin="round"/>
<path d="M294.794 219.199H246.682V221.443H294.794V219.199Z" fill="white" stroke="#263238" stroke-linecap="round" stroke-linejoin="round"/>
<path d="M331.791 139.75H228.086V206.632H331.791V139.75Z" fill="white" stroke="#263238" stroke-linecap="round" stroke-linejoin="round"/>
<path d="M331.791 139.75H233.746V206.632H331.791V139.75Z" fill="#263238" stroke="#263238" stroke-linecap="round" stroke-linejoin="round"/>
<path d="M295.911 170.827H273.216V222.463H295.911V170.827Z" fill="white" stroke="#263238" stroke-linecap="round" stroke-linejoin="round"/>
<path d="M298.004 170.827H275.309V222.463H298.004V170.827Z" fill="#263238" stroke="#263238" stroke-linecap="round" stroke-linejoin="round"/>
<path d="M273.801 171.434H298.535V206.794" stroke="white" stroke-linejoin="round"/>
<path d="M227.37 217.995H157.897V221.628H227.37V217.995Z" fill="white" stroke="#263238" stroke-linecap="round" stroke-linejoin="round"/>
<path d="M245.327 217.995H175.854V221.628H245.327V217.995Z" fill="white" stroke="#263238" stroke-linecap="round" stroke-linejoin="round"/>
<path d="M155.219 227.613H48.7701L43.7171 383.171C43.6893 383.602 43.7475 384.034 43.8883 384.442C44.0292 384.851 44.2498 385.227 44.5375 385.549C44.8251 385.871 45.174 386.132 45.5637 386.318C45.9534 386.503 46.3762 386.61 46.8074 386.63C47.605 386.607 48.3649 386.286 48.937 385.73C49.5092 385.174 49.852 384.423 49.8978 383.627L60.058 256.511C60.1869 254.244 61.16 252.107 62.7856 250.522C64.4111 248.936 66.5715 248.017 68.841 247.945H135.148C137.416 248.017 139.575 248.937 141.199 250.522C142.823 252.108 143.794 254.245 143.92 256.511L154.091 383.605C154.137 384.4 154.478 385.149 155.048 385.705C155.618 386.261 156.375 386.583 157.171 386.609C157.602 386.589 158.025 386.485 158.415 386.3C158.805 386.116 159.155 385.855 159.444 385.534C159.732 385.213 159.954 384.838 160.096 384.431C160.238 384.023 160.298 383.591 160.272 383.161L155.219 227.613Z" fill="#92E3A9" stroke="#263238" stroke-linecap="round" stroke-linejoin="round"/>
<path d="M155.457 234.77L155.219 227.613H120.401H83.5879H48.77L48.5315 234.77H155.457Z" fill="#263238" stroke="#263238" stroke-linecap="round" stroke-linejoin="round"/>
<path d="M397.632 227.613H291.151L286.109 383.171C286.082 383.601 286.141 384.032 286.283 384.439C286.425 384.846 286.645 385.221 286.933 385.542C287.22 385.862 287.569 386.123 287.958 386.308C288.347 386.493 288.769 386.599 289.199 386.62C289.994 386.594 290.752 386.271 291.322 385.716C291.891 385.16 292.233 384.411 292.278 383.616L302.471 256.511C302.6 254.244 303.573 252.107 305.199 250.522C306.824 248.936 308.985 248.017 311.254 247.945H377.561C379.829 248.017 381.988 248.937 383.612 250.522C385.236 252.108 386.207 254.245 386.333 256.511L396.504 383.605C396.545 384.404 396.884 385.158 397.454 385.718C398.024 386.279 398.785 386.604 399.584 386.63C400.014 386.61 400.436 386.504 400.825 386.319C401.214 386.134 401.562 385.873 401.85 385.552C402.137 385.232 402.358 384.857 402.5 384.45C402.641 384.043 402.7 383.612 402.674 383.182L397.632 227.613Z" fill="#92E3A9" stroke="#263238" stroke-linecap="round" stroke-linejoin="round"/>
<path d="M398.337 234.77L398.109 227.613H363.291H326.467H291.649L291.422 234.77H398.337Z" fill="#263238" stroke="#263238" stroke-linecap="round" stroke-linejoin="round"/>
<path d="M404.648 221.606H40.1388V229.804H404.648V221.606Z" fill="white" stroke="#263238" stroke-linecap="round" stroke-linejoin="round"/>
<path d="M404.658 221.606H143.4V229.804H404.658V221.606Z" fill="white" stroke="#263238" stroke-linecap="round" stroke-linejoin="round"/>
</svg>
